<?xml version="1.0" encoding="UTF-8" standalone="no"?>
<!-- Created with Inkscape (http://www.inkscape.org/) -->

<svg
   xmlns:dc="http://purl.org/dc/elements/1.1/"
   xmlns:cc="http://creativecommons.org/ns#"
   xmlns:rdf="http://www.w3.org/1999/02/22-rdf-syntax-ns#"
   xmlns:svg="http://www.w3.org/2000/svg"
   xmlns="http://www.w3.org/2000/svg"
   xmlns:sodipodi="http://sodipodi.sourceforge.net/DTD/sodipodi-0.dtd"
   xmlns:inkscape="http://www.inkscape.org/namespaces/inkscape"
   version="1.1"
   id="svg4518"
   width="585.08148"
   height="641.23511"
   viewBox="0 0 585.08148 641.23511"
   sodipodi:docname="logo.svg"
   inkscape:version="0.92.5 (2060ec1f9f, 2020-04-08)">
  <metadata
     id="metadata4524">
    <rdf:RDF>
      <cc:Work
         rdf:about="">
        <dc:format>image/svg+xml</dc:format>
        <dc:type
           rdf:resource="http://purl.org/dc/dcmitype/StillImage" />
        <dc:title></dc:title>
      </cc:Work>
    </rdf:RDF>
  </metadata>
  <defs
     id="defs4522" />
  <sodipodi:namedview
     pagecolor="#ffffff"
     bordercolor="#666666"
     borderopacity="1"
     objecttolerance="10"
     gridtolerance="10"
     guidetolerance="10"
     inkscape:pageopacity="0"
     inkscape:pageshadow="2"
     inkscape:window-width="1920"
     inkscape:window-height="1017"
     id="namedview4520"
     showgrid="false"
     fit-margin-top="20"
     fit-margin-left="20"
     fit-margin-right="20"
     fit-margin-bottom="20"
     inkscape:zoom="0.44090188"
     inkscape:cx="420.15329"
     inkscape:cy="124.34512"
     inkscape:window-x="-8"
     inkscape:window-y="32"
     inkscape:window-maximized="1"
     inkscape:current-layer="svg4518" />
  <g
     id="g4568"
     transform="translate(943.72554,-178.22508)"
     style="fill:#006194;fill-opacity:1">
    <path
       style="fill:#006194;fill-opacity:1;stroke-width:1.33333325"
       d="m -623.82395,782.90755 c 0,-0.27686 1.05,-1.32686 2.33334,-2.33333 2.11474,-1.65849 2.1619,-1.61133 0.50341,0.50341 -1.74183,2.221 -2.83675,2.92731 -2.83675,1.82992 z m 5.33334,-4 c 0,-0.27686 1.05,-1.32686 2.33333,-2.33333 2.11475,-1.65849 2.16191,-1.61133 0.50341,0.50341 -1.74182,2.221 -2.83674,2.92731 -2.83674,1.82992 z m 5.33333,-4 c 0,-0.27686 1.05,-1.32686 2.33333,-2.33333 2.11475,-1.65849 2.16191,-1.61133 0.50342,0.50341 -1.74183,2.221 -2.83675,2.92731 -2.83675,1.82992 z m 6.66667,-5.33333 c 0,-0.27687 1.05,-1.32687 2.33333,-2.33333 2.11475,-1.6585 2.16191,-1.61134 0.50341,0.50341 -1.74182,2.221 -2.83674,2.92731 -2.83674,1.82992 z m -94.83675,-4.49659 c -1.65849,-2.11474 -1.61133,-2.1619 0.50342,-0.50341 2.221,1.74183 2.9273,2.83675 1.82992,2.83675 -0.27687,0 -1.32687,-1.05 -2.33334,-2.33334 z m 104.83675,-4.33333 c 1.32732,-1.46667 2.7133,-2.66667 3.07997,-2.66667 0.36667,0 -0.41932,1.2 -1.74664,2.66667 -1.32732,1.46667 -2.71331,2.66667 -3.07997,2.66667 -0.36667,0 0.41932,-1.2 1.74664,-2.66667 z m -115.43425,-5 -3.23242,-3.66667 3.66667,3.23242 c 3.42705,3.02118 4.27812,4.10092 3.23241,4.10092 -0.23882,0 -1.88882,-1.65 -3.66666,-3.66667 z m 105.43425,-0.83675 c 0,-0.27686 1.05,-1.32686 2.33333,-2.33333 2.11475,-1.65849 2.16191,-1.61133 0.50341,0.50341 -1.74182,2.221 -2.83674,2.92731 -2.83674,1.82992 z m 22.61094,-5.16325 c 5.52528,-5.88692 6.72239,-6.94545 6.72239,-5.94428 0,0.21399 -2.85,3.06399 -6.33333,6.33333 l -6.33334,5.94428 z m -118.07095,0 -2.53999,-3 3,2.53999 c 2.81925,2.38696 3.60699,3.46001 2.53999,3.46001 -0.25302,0 -1.60302,-1.35 -3,-3 z m 106.12667,-4.33333 c 1.72234,-1.83334 3.43151,-3.33334 3.79818,-3.33334 0.36666,0 -0.74251,1.5 -2.46484,3.33334 -1.72234,1.83333 -3.43151,3.33333 -3.79818,3.33333 -0.36666,0 0.74251,-1.5 2.46484,-3.33333 z m -135.37506,-7.66667 -7.95827,-8.33333 8.33334,7.95826 c 4.58333,4.37704 8.33333,8.12704 8.33333,8.33334 0,0.9852 -1.31585,-0.21731 -8.7084,-7.95827 z m 17.96996,2 -4.59489,-5 5,4.59489 c 4.65389,4.27682 5.61305,5.40511 4.59489,5.40511 -0.22281,0 -2.47281,-2.25 -5,-5 z m 148.73844,-9.66667 c 3.61153,-3.66666 6.86642,-6.66666 7.23309,-6.66666 0.36667,0 -2.28823,3 -5.89976,6.66666 -3.61153,3.66667 -6.86643,6.66667 -7.23309,6.66667 -0.36667,0 2.28822,-3 5.89976,-6.66667 z m -10.66667,-4 c 3.61153,-3.66666 6.86643,-6.66666 7.23309,-6.66666 0.36667,0 -2.28822,3 -5.89976,6.66666 -3.61153,3.66667 -6.86642,6.66667 -7.23309,6.66667 -0.36667,0 2.28823,-3 5.89976,-6.66667 z m -75.91428,2.27583 c 0.50071,-1.31496 1.24625,-2.05496 1.65677,-1.64444 0.41052,0.41052 8.6e-4,1.48639 -0.91037,2.39084 -1.31683,1.30701 -1.46997,1.15387 -0.7464,-0.7464 z m 4.58095,-1.68785 c 0,-1.14328 0.60978,-1.70182 1.35508,-1.2412 0.74529,0.46061 1.00989,1.39602 0.58797,2.07869 -1.14297,1.84939 -1.94305,1.50455 -1.94305,-0.83749 z m -11.16667,-0.31831 c -0.36156,-0.58501 -0.10613,-1.93501 0.56756,-3 0.95639,-1.5118 1.22942,-1.27861 1.24536,1.06367 0.0209,3.08404 -0.65642,3.80757 -1.81292,1.93633 z m -90.26758,-6.603 -3.23242,-3.66667 3.66667,3.23242 c 3.42705,3.02118 4.27812,4.10092 3.23241,4.10092 -0.23882,0 -1.88882,-1.65 -3.66666,-3.66667 z m 12.70485,-2 -5.2706,-5.66667 5.66667,5.2706 c 5.26994,4.9016 6.27937,6.06274 5.2706,6.06274 -0.21784,0 -2.76784,-2.55 -5.66667,-5.66667 z m 90.168,2.22223 c 0.064,-1.55327 0.37992,-1.8692 0.80554,-0.80556 0.38516,0.96249 0.3378,2.1125 -0.1052,2.55556 -0.44305,0.44305 -0.75818,-0.34446 -0.70029,-1.75 z m -13.33333,-2.66667 c 0.064,-1.55327 0.37992,-1.8692 0.80554,-0.80556 0.38516,0.96249 0.3378,2.11251 -0.1052,2.55556 -0.44305,0.44305 -0.75818,-0.34445 -0.70029,-1.75 z m 10.66666,-2.66667 c 0.064,-1.55326 0.37992,-1.8692 0.80555,-0.80556 0.38516,0.9625 0.3378,2.11251 -0.1052,2.55556 -0.44306,0.44306 -0.75819,-0.34445 -0.7003,-1.75 z m 95.89473,1.6077 c 0,-0.27687 1.05,-1.32687 2.33333,-2.33334 2.11475,-1.65849 2.16191,-1.61133 0.50342,0.50342 -1.74183,2.221 -2.83675,2.9273 -2.83675,1.82992 z m -103.89473,-4.27436 c 0.064,-1.55327 0.37992,-1.8692 0.80555,-0.80556 0.38516,0.96249 0.3378,2.1125 -0.1052,2.55556 -0.44306,0.44305 -0.75819,-0.34446 -0.7003,-1.75 z m 95.22807,-1.8889 c 1.32732,-1.46666 2.7133,-2.66666 3.07997,-2.66666 0.36667,0 -0.41932,1.2 -1.74664,2.66666 -1.32732,1.46667 -2.71331,2.66667 -3.07997,2.66667 -0.36667,0 0.41932,-1.2 1.74664,-2.66667 z m -196.83674,-1 c -1.6585,-2.11474 -1.61134,-2.1619 0.50341,-0.50341 1.28333,1.00647 2.33333,2.05647 2.33333,2.33333 0,1.09739 -1.09492,0.39108 -2.83674,-1.82992 z m 212.17007,-0.83674 c 0,-0.27687 1.05,-1.32687 2.33333,-2.33334 2.11475,-1.65849 2.16191,-1.61133 0.50341,0.50342 -1.74182,2.221 -2.83674,2.9273 -2.83674,1.82992 z m -115.89473,-2.94103 c 0.064,-1.55327 0.37992,-1.8692 0.80555,-0.80556 0.38516,0.96249 0.3378,2.11251 -0.1052,2.55556 -0.44306,0.44305 -0.75819,-0.34445 -0.7003,-1.75 z m -86.94201,-1.55556 c -1.6585,-2.11475 -1.61134,-2.16191 0.50341,-0.50341 2.221,1.74182 2.92731,2.83674 1.82992,2.83674 -0.27687,0 -1.32687,-1.05 -2.33333,-2.33333 z m -14.66667,-1.33333 c -1.65849,-2.11475 -1.61133,-2.16191 0.50342,-0.50342 1.28333,1.00647 2.33333,2.05647 2.33333,2.33334 0,1.09738 -1.09492,0.39108 -2.83675,-1.82992 z m 209.50341,-0.83675 c 0,-0.27687 1.05,-1.32687 2.33333,-2.33333 2.11475,-1.6585 2.16191,-1.61134 0.50341,0.50341 -1.74182,2.221 -2.83674,2.92731 -2.83674,1.82992 z m 13.33333,0 c 0,-0.27687 1.05,-1.32687 2.33333,-2.33333 2.11475,-1.6585 2.16191,-1.61134 0.50342,0.50341 -1.74183,2.221 -2.83675,2.92731 -2.83675,1.82992 z m -214.83674,-5.82992 c -1.65849,-2.11475 -1.61133,-2.16191 0.50341,-0.50341 1.28334,1.00646 2.33334,2.05646 2.33334,2.33333 0,1.09739 -1.09492,0.39108 -2.83675,-1.82992 z m 206.83674,-0.83675 c 0,-0.27686 1.05,-1.32686 2.33333,-2.33333 2.11475,-1.65849 2.16191,-1.61133 0.50342,0.50341 -1.74183,2.221 -2.83675,2.92731 -2.83675,1.82992 z m -212.17007,-5.82992 c -1.65849,-2.11474 -1.61133,-2.1619 0.50341,-0.50341 1.28334,1.00647 2.33334,2.05647 2.33334,2.33333 0,1.09739 -1.09492,0.39108 -2.83675,-1.82992 z m 74.83674,-1.66666 c -0.78493,-1.46667 -1.12716,-2.66667 -0.76049,-2.66667 0.36667,0 1.30889,1.2 2.09383,2.66667 0.78493,1.46666 1.12716,2.66666 0.76049,2.66666 -0.36667,0 -1.30889,-1.2 -2.09383,-2.66666 z m 40.85116,-26 c 0.42212,-1.1 1.00328,-2 1.29149,-2 0.2882,0 0.52402,0.9 0.52402,2 0,1.1 -0.58118,2 -1.2915,2 -0.7103,0 -0.94612,-0.9 -0.52401,-2 z m -0.85116,-5.69106 c 0,-0.67593 1.21419,-2.3278 2.69817,-3.6708 2.06104,-1.86521 2.29719,-2.69632 1,-3.51956 -1.23794,-0.78566 -1.06581,-1.08328 0.63516,-1.09817 3.11028,-0.0272 2.95036,0.86135 -1,5.55608 -1.83333,2.17879 -3.33333,3.4084 -3.33333,2.73245 z m -17.77777,-5.19784 c -1.77456,-1.77454 -0.8226,-3.10769 2.11111,-2.95644 2.28298,0.11774 2.43841,0.30116 0.65034,0.76758 -1.29232,0.3371 -2.0069,1.1675 -1.58798,1.84533 0.88194,1.42701 0.13013,1.64711 -1.17347,0.34353 z m 31.21637,-9.22221 c 0.064,-1.55327 0.37992,-1.8692 0.80555,-0.80556 0.38516,0.96249 0.3378,2.11251 -0.1052,2.55556 -0.44306,0.44305 -0.75819,-0.34445 -0.7003,-1.75 z m -40,-2.66667 c 0.064,-1.55326 0.37992,-1.8692 0.80555,-0.80556 0.38516,0.9625 0.3378,2.11251 -0.1052,2.55556 -0.44307,0.44306 -0.75819,-0.34445 -0.70029,-1.75 z m 41.33333,-4 c 0.064,-1.55326 0.37992,-1.8692 0.80555,-0.80556 0.38516,0.9625 0.3378,2.11251 -0.1052,2.55556 -0.44305,0.44306 -0.75819,-0.34445 -0.70029,-1.75 z m -42.66666,-2.66666 c 0.064,-1.55327 0.37992,-1.8692 0.80555,-0.80556 0.38516,0.96249 0.3378,2.1125 -0.1052,2.55556 -0.44307,0.44305 -0.75819,-0.34446 -0.7003,-1.75 z m -5.33333,-6.66667 c 0.064,-1.55327 0.37992,-1.8692 0.80554,-0.80556 0.38516,0.96249 0.3378,2.11251 -0.1052,2.55556 -0.44306,0.44305 -0.75818,-0.34445 -0.70029,-1.75 z m 50.66666,-2.66667 c 0.064,-1.55326 0.37992,-1.8692 0.80555,-0.80556 0.38516,0.9625 0.3378,2.11251 -0.1052,2.55556 -0.44306,0.44306 -0.75819,-0.34445 -0.7003,-1.75 z m -48,-2.66666 c 0.064,-1.55327 0.37992,-1.8692 0.80555,-0.80556 0.38516,0.96249 0.3378,2.1125 -0.1052,2.55556 -0.44307,0.44305 -0.75819,-0.34446 -0.70029,-1.75 z m 53.33333,-4 c 0.064,-1.55327 0.37992,-1.8692 0.80555,-0.80556 0.38516,0.96249 0.3378,2.1125 -0.1052,2.55556 -0.44305,0.44305 -0.75819,-0.34446 -0.70029,-1.75 z m -58.66666,-2.66667 c 0.064,-1.55327 0.37992,-1.8692 0.80555,-0.80556 0.38516,0.96249 0.3378,2.11251 -0.1052,2.55556 -0.44307,0.44305 -0.75819,-0.34445 -0.7003,-1.75 z m 185.33511,-0.55556 c 1.94375,-4.08137 2.55962,-4.83779 2.55962,-3.14373 0,0.7154 -0.9331,2.4654 -2.07356,3.88889 -1.95516,2.44041 -1.98292,2.39787 -0.48606,-0.74516 z m -312.60899,-2.05155 c -1.28664,-3.35292 -0.90708,-4.21806 0.66471,-1.51512 0.77825,1.33834 1.13413,2.71422 0.79084,3.05751 -0.34329,0.34329 -0.99829,-0.35079 -1.45555,-1.54239 z m 183.27388,-0.0596 c 0.064,-1.55326 0.37992,-1.8692 0.80554,-0.80556 0.38516,0.9625 0.3378,2.11251 -0.1052,2.55556 -0.44305,0.44306 -0.75818,-0.34445 -0.70029,-1.75 z m 141.2689,1.44448 c 0,-0.73333 0.58161,-2.23333 1.29249,-3.33333 0.71088,-1.1 1.2925,-1.4 1.2925,-0.66667 0,0.73334 -0.58162,2.23334 -1.2925,3.33334 -0.71088,1.1 -1.29249,1.4 -1.29249,0.66666 z m -137.2689,-2.77777 c 0.064,-1.55327 0.37992,-1.8692 0.80554,-0.80556 0.38516,0.96249 0.3378,2.11251 -0.1052,2.55556 -0.44305,0.44305 -0.75818,-0.34445 -0.70029,-1.75 z m -200.60721,-2.60711 c -1.28664,-3.35292 -0.90708,-4.21806 0.66471,-1.51512 0.77825,1.33834 1.13413,2.71422 0.79084,3.05751 -0.3433,0.34329 -0.9983,-0.35079 -1.45555,-1.54239 z m 139.27388,-0.0596 c 0.064,-1.55326 0.37992,-1.8692 0.80554,-0.80556 0.38516,0.9625 0.3378,2.11251 -0.1052,2.55556 -0.44306,0.44306 -0.75818,-0.34445 -0.70029,-1.75 z m 58.66666,-2.66666 c 0.064,-1.55327 0.37992,-1.8692 0.80555,-0.80556 0.38516,0.96249 0.3378,2.1125 -0.1052,2.55556 -0.44306,0.44305 -0.75819,-0.34446 -0.7003,-1.75 z m 4,0 c 0.064,-1.55327 0.37992,-1.8692 0.80555,-0.80556 0.38516,0.96249 0.3378,2.1125 -0.1052,2.55556 -0.44306,0.44305 -0.75819,-0.34446 -0.7003,-1.75 z m -60,-2.66667 c 0.064,-1.55327 0.37992,-1.8692 0.80555,-0.80556 0.38516,0.96249 0.3378,2.11251 -0.1052,2.55556 -0.44307,0.44305 -0.75819,-0.34445 -0.70029,-1.75 z m 61.33333,-4 c 0.064,-1.55327 0.37992,-1.8692 0.80555,-0.80556 0.38516,0.96249 0.3378,2.11251 -0.1052,2.55556 -0.44305,0.44305 -0.75819,-0.34445 -0.70029,-1.75 z m -66.66666,-2.66667 c 0.064,-1.55326 0.37992,-1.8692 0.80555,-0.80556 0.38516,0.9625 0.3378,2.11251 -0.1052,2.55556 -0.44307,0.44306 -0.75819,-0.34445 -0.7003,-1.75 z m 90.77192,-3.22218 c 0,-1.83334 0.30264,-2.58334 0.67252,-1.66667 0.36988,0.91667 0.36988,2.41667 0,3.33333 -0.36988,0.91667 -0.67252,0.16667 -0.67252,-1.66666 z m -88.10525,-2.11111 c 0.064,-1.55327 0.37992,-1.8692 0.80554,-0.80556 0.38516,0.96249 0.3378,2.11251 -0.1052,2.55556 -0.44306,0.44305 -0.75818,-0.34445 -0.70029,-1.75 z m 75.99999,0 c 0.064,-1.55327 0.37992,-1.8692 0.80555,-0.80556 0.38516,0.96249 0.3378,2.11251 -0.1052,2.55556 -0.44305,0.44305 -0.75819,-0.34445 -0.70029,-1.75 z m -9.33333,-4 c 0.064,-1.55327 0.37992,-1.8692 0.80555,-0.80556 0.38516,0.96249 0.3378,2.11251 -0.1052,2.55556 -0.44306,0.44305 -0.75819,-0.34445 -0.7003,-1.75 z m 23.22807,-1.88889 c 1.32732,-1.46667 2.7133,-2.66667 3.07997,-2.66667 0.36667,0 -0.41932,1.2 -1.74664,2.66667 -1.32732,1.46666 -2.71331,2.66666 -3.07997,2.66666 -0.36667,0 0.41932,-1.2 1.74664,-2.66666 z m -8.66667,-9.41203 c 0,-0.77661 0.6,-1.0412 1.33333,-0.58797 0.73334,0.45322 1.33334,1.08864 1.33334,1.41202 0,0.32339 -0.6,0.58798 -1.33334,0.58798 -0.73333,0 -1.33333,-0.63542 -1.33333,-1.41203 z m -111.14884,-16.58797 c 0.42212,-1.1 1.00328,-2 1.2915,-2 0.2882,0 0.52401,0.9 0.52401,2 0,1.1 -0.58117,2 -1.29149,2 -0.71031,0 -0.94612,-0.9 -0.52402,-2 z m -52.85115,-6 c -0.78494,-1.46667 -1.12716,-2.66667 -0.7605,-2.66667 0.36667,0 1.3089,1.2 2.09383,2.66667 0.78493,1.46666 1.12716,2.66666 0.76049,2.66666 -0.36666,0 -1.30889,-1.2 -2.09382,-2.66666 z m 54.6715,-3.33334 c 1.83068,-2.2 3.47849,-4.25 3.66183,-4.55556 0.18333,-0.30554 0.62708,-0.26181 0.98609,0.0972 0.35901,0.35902 -1.2888,2.40902 -3.66183,4.55555 l -4.31457,3.9028 3.32848,-4 z m 143.51298,-2.66666 c 0.42212,-1.1 1.00328,-2 1.2915,-2 0.2882,0 0.52401,0.9 0.52401,2 0,1.1 -0.58117,2 -1.29149,2 -0.71031,0 -0.94612,-0.9 -0.52402,-2 z m 1.14884,-8.66667 c 1.32732,-1.46667 2.71331,-2.66667 3.07998,-2.66667 0.36666,0 -0.41932,1.2 -1.74664,2.66667 -1.32732,1.46667 -2.71331,2.66667 -3.07998,2.66667 -0.36666,0 0.41932,-1.2 1.74664,-2.66667 z m -20.66666,-4.12483 c 0,-0.66468 1.2,-1.2085 2.66666,-1.2085 1.46667,0 2.66667,0.23002 2.66667,0.51116 0,0.28113 -1.2,0.82496 -2.66667,1.2085 -1.46666,0.38355 -2.66666,0.15352 -2.66666,-0.51116 z m 21,-0.75821 c 0.91666,-0.36988 2.41666,-0.36988 3.33333,0 0.91667,0.36988 0.16667,0.67252 -1.66667,0.67252 -1.83333,0 -2.58333,-0.30264 -1.66666,-0.67252 z m -40.89474,-7.89473 c 0.064,-1.55327 0.37992,-1.8692 0.80555,-0.80556 0.38516,0.96249 0.3378,2.1125 -0.1052,2.55556 -0.44305,0.44305 -0.75819,-0.34446 -0.70029,-1.75 z m 2.66667,-12 c 0.064,-1.55327 0.37992,-1.8692 0.80555,-0.80556 0.38516,0.96249 0.3378,2.1125 -0.1052,2.55556 -0.44306,0.44305 -0.75819,-0.34446 -0.7003,-1.75 z m -239.99999,-1.33334 c 0.064,-1.55326 0.37992,-1.8692 0.80554,-0.80556 0.38516,0.9625 0.3378,2.11251 -0.1052,2.55556 -0.44306,0.44306 -0.75818,-0.34445 -0.70029,-1.75 z m 143.99999,-1.33333 c 0.064,-1.55327 0.37992,-1.8692 0.80555,-0.80556 0.38516,0.96249 0.3378,2.11251 -0.1052,2.55556 -0.44307,0.44305 -0.75819,-0.34445 -0.70029,-1.75 z m 97.33333,-4 c 0.064,-1.55327 0.37992,-1.8692 0.80555,-0.80556 0.38516,0.96249 0.3378,2.11251 -0.1052,2.55556 -0.44305,0.44305 -0.75819,-0.34445 -0.70029,-1.75 z m 91.89473,-0.55556 c 0.78494,-1.46667 1.72716,-2.66667 2.09383,-2.66667 0.36667,0 0.0244,1.2 -0.76049,2.66667 -0.78494,1.46667 -1.72716,2.66667 -2.09383,2.66667 -0.36667,0 -0.0244,-1.2 0.76049,-2.66667 z m -90.56139,-4.77777 c 0.064,-1.55327 0.37992,-1.8692 0.80554,-0.80556 0.38516,0.96249 0.3378,2.1125 -0.1052,2.55556 -0.44305,0.44305 -0.75818,-0.34446 -0.70029,-1.75 z m 4,-1.33334 c 0.064,-1.55326 0.37992,-1.8692 0.80554,-0.80556 0.38516,0.9625 0.3378,2.11251 -0.1052,2.55556 -0.44305,0.44306 -0.75818,-0.34445 -0.70029,-1.75 z m -109.33333,-2.66666 c 0.064,-1.55327 0.37992,-1.8692 0.80554,-0.80556 0.38516,0.96249 0.3378,2.1125 -0.1052,2.55556 -0.44306,0.44305 -0.75818,-0.34446 -0.70029,-1.75 z m 62.66666,-2.66667 c 0.064,-1.55327 0.37992,-1.8692 0.80555,-0.80556 0.38516,0.96249 0.3378,2.11251 -0.1052,2.55556 -0.44306,0.44305 -0.75819,-0.34445 -0.7003,-1.75 z m 44,0 c 0.064,-1.55327 0.37992,-1.8692 0.80555,-0.80556 0.38516,0.96249 0.3378,2.11251 -0.1052,2.55556 -0.44306,0.44305 -0.75819,-0.34445 -0.7003,-1.75 z m -104,-2.66667 c 0.064,-1.55326 0.37992,-1.8692 0.80555,-0.80556 0.38516,0.9625 0.3378,2.11251 -0.1052,2.55556 -0.44307,0.44306 -0.75819,-0.34445 -0.70029,-1.75 z m 45.33334,-1.33333 c 0.064,-1.55327 0.37992,-1.8692 0.80554,-0.80556 0.38516,0.96249 0.3378,2.11251 -0.1052,2.55556 -0.44305,0.44305 -0.75818,-0.34445 -0.70029,-1.75 z m 203.99999,0 c 0.064,-1.55327 0.37992,-1.8692 0.80554,-0.80556 0.38516,0.96249 0.3378,2.11251 -0.1052,2.55556 -0.44305,0.44305 -0.75818,-0.34445 -0.70029,-1.75 z m -140,-2.66667 c 0.064,-1.55326 0.37992,-1.8692 0.80555,-0.80556 0.38516,0.9625 0.3378,2.11251 -0.1052,2.55556 -0.44305,0.44306 -0.75819,-0.34445 -0.70029,-1.75 z m -114.66666,-2.66666 c 0.064,-1.55327 0.37992,-1.8692 0.80555,-0.80556 0.38516,0.96249 0.3378,2.1125 -0.1052,2.55556 -0.44307,0.44305 -0.75819,-0.34446 -0.7003,-1.75 z m 47.79381,-1.55556 -3.23241,-3.66667 3.66667,3.23241 c 3.42705,3.02119 4.27812,4.10092 3.23241,4.10092 -0.23883,0 -1.88883,-1.65 -3.66667,-3.66666 z m 64.31144,-1.66667 c 0,-1.83333 0.30264,-2.58333 0.67252,-1.66667 0.36988,0.91667 0.36988,2.41667 0,3.33334 -0.36988,0.91666 -0.67252,0.16666 -0.67252,-1.66667 z m -109.54385,-0.86165 c 0,-0.71836 1.95,-3.06836 4.33333,-5.22223 l 4.33334,-3.91612 -4,4.66 c -2.2,2.56301 -4.15,4.91301 -4.33334,5.22223 -0.18333,0.30922 -0.33333,-0.0256 -0.33333,-0.74388 z m -6.76759,-4.13835 -3.23241,-3.66667 3.66667,3.23242 c 3.42705,3.02118 4.27812,4.10092 3.23241,4.10092 -0.23883,0 -1.88883,-1.65 -3.66667,-3.66667 z m 55.43426,2.75861 c 1.46666,-0.40357 3.16234,-1.41436 3.76817,-2.24618 0.72781,-0.99932 0.91854,-0.8339 0.56222,0.48757 -0.2966,1.1 -1.99228,2.11079 -3.76817,2.24619 -2.54598,0.19413 -2.66489,0.0911 -0.56222,-0.48758 z m 10.74351,-0.30093 c -0.41096,-0.66495 0.45363,-0.89496 1.92131,-0.51116 3.11332,0.81415 3.50687,1.72015 0.7472,1.72015 -1.05672,0 -2.25755,-0.54404 -2.66851,-1.20899 z m 41.75307,-7.79101 c -1.65849,-2.11475 -1.61133,-2.16191 0.50341,-0.50342 2.221,1.74183 2.92731,2.83675 1.82992,2.83675 -0.27686,0 -1.32686,-1.05 -2.33333,-2.33333 z m 154.94201,-3.77778 c 0.064,-1.55326 0.37992,-1.8692 0.80554,-0.80556 0.38516,0.9625 0.3378,2.11251 -0.1052,2.55556 -0.44305,0.44306 -0.75818,-0.34445 -0.70029,-1.75 z m 12,0 c 0.064,-1.55326 0.37992,-1.8692 0.80554,-0.80556 0.38516,0.9625 0.3378,2.11251 -0.1052,2.55556 -0.44305,0.44306 -0.75818,-0.34445 -0.70029,-1.75 z m 1.33333,-8 c 0.064,-1.55326 0.37992,-1.8692 0.80555,-0.80556 0.38516,0.9625 0.3378,2.1125 -0.1052,2.55556 -0.44306,0.44306 -0.75819,-0.34445 -0.7003,-1.75 z m -81.6886,-1.46637 c 0.9625,-0.38516 2.11251,-0.3378 2.55556,0.1052 0.44306,0.44305 -0.34445,0.75819 -1.75,0.70029 -1.55326,-0.064 -1.8692,-0.37992 -0.80556,-0.80554 z m -347.64472,-2.53363 c 0.064,-1.55326 0.37992,-1.8692 0.80555,-0.80556 0.38516,0.9625 0.3378,2.1125 -0.1052,2.55556 -0.44307,0.44306 -0.75819,-0.34445 -0.70029,-1.75 z m 87.64473,1.2003 c 0.9625,-0.38516 2.1125,-0.3378 2.55556,0.1052 0.44306,0.44305 -0.34445,0.75818 -1.75,0.70029 -1.55326,-0.064 -1.8692,-0.37992 -0.80556,-0.80555 z m 26.66667,0 c 0.96249,-0.38516 2.11249,-0.3378 2.55556,0.1052 0.44305,0.44305 -0.34446,0.75818 -1.75,0.70029 -1.55327,-0.064 -1.8692,-0.37992 -0.80556,-0.80555 z m 86.66666,0 c 0.9625,-0.38516 2.1125,-0.3378 2.55556,0.1052 0.44306,0.44305 -0.34445,0.75818 -1.75,0.70029 -1.55326,-0.064 -1.8692,-0.37992 -0.80556,-0.80555 z m 28,0 c 0.96249,-0.38516 2.11251,-0.3378 2.55556,0.1052 0.44305,0.44305 -0.34445,0.75818 -1.75,0.70029 -1.55327,-0.064 -1.8692,-0.37992 -0.80556,-0.80555 z m 85.33333,0 c 0.96249,-0.38516 2.11251,-0.3378 2.55556,0.1052 0.44305,0.44305 -0.34445,0.75818 -1.75,0.70029 -1.55327,-0.064 -1.8692,-0.37992 -0.80556,-0.80555 z m 26.58333,0.0277 c 0.91667,-0.36988 2.41667,-0.36988 3.33334,0 0.91666,0.36988 0.16666,0.67252 -1.66667,0.67252 -1.83333,0 -2.58333,-0.30264 -1.66667,-0.67252 z m -242.64277,-1.4166 c 2.39646,-0.29675 5.99646,-0.29063 8,0.0136 2.00353,0.30424 0.0428,0.54703 -4.35722,0.53955 -4.4,-0.008 -6.03925,-0.2564 -3.64278,-0.55315 z m 113.33332,0 c 2.39647,-0.29675 5.99647,-0.29063 8,0.0136 2.00354,0.30424 0.0428,0.54703 -4.35721,0.53955 -4.4,-0.008 -6.03925,-0.2564 -3.64279,-0.55315 z m 113.33333,0 c 2.39647,-0.29675 5.99647,-0.29063 8,0.0136 2.00354,0.30424 0.0428,0.54703 -4.35721,0.53955 -4.4,-0.008 -6.03925,-0.2564 -3.64279,-0.55315 z m 105.74805,-5.1448 c 0.064,-1.55327 0.37992,-1.8692 0.80555,-0.80556 0.38516,0.96249 0.3378,2.11249 -0.1052,2.55556 -0.44305,0.44305 -0.75819,-0.34445 -0.70029,-1.75 z m -12,-1.33333 c 0.064,-1.55327 0.37992,-1.8692 0.80555,-0.80556 0.38516,0.96249 0.3378,2.11249 -0.1052,2.55556 -0.44305,0.44305 -0.75819,-0.34446 -0.70029,-1.75 z m -419.89473,-3.22219 c 0,-1.83333 0.30264,-2.58333 0.67252,-1.66667 0.36988,0.91667 0.36988,2.41667 0,3.33334 -0.36988,0.91666 -0.67252,0.16666 -0.67252,-1.66667 z m 11.89475,-2.11111 c 0.064,-1.55326 0.37992,-1.8692 0.80555,-0.80556 0.38516,0.9625 0.3378,2.1125 -0.1052,2.55556 -0.44307,0.44306 -0.75819,-0.34445 -0.7003,-1.75 z m 421.43857,-3.22222 c 0,-1.83334 0.30264,-2.58334 0.67252,-1.66667 0.36988,0.91667 0.36988,2.41667 0,3.33333 -0.36988,0.91667 -0.67252,0.16667 -0.67252,-1.66666 z m -12.10525,-3.44444 c 0.064,-1.55327 0.37992,-1.8692 0.80554,-0.80556 0.38516,0.96249 0.3378,2.11249 -0.1052,2.55556 -0.44305,0.44305 -0.75818,-0.34446 -0.70029,-1.75 z m -422.5614,-1.8889 c 0,-1.83333 0.30264,-2.58333 0.67252,-1.66666 0.36988,0.91666 0.36988,2.41666 0,3.33333 -0.36988,0.91667 -0.67252,0.16667 -0.67252,-1.66667 z m 12.04941,-4.66666 c 0.0272,-2.2 0.326,-2.93859 0.66406,-1.6413 0.33805,1.2973 0.31582,3.0973 -0.0493,4 -0.36524,0.90271 -0.64182,-0.1587 -0.61465,-2.3587 z m 65.0734,2.82992 c 0,-0.27687 1.05,-1.32687 2.33333,-2.33334 2.11475,-1.65849 2.16191,-1.61133 0.50342,0.50342 -1.74183,2.221 -2.83675,2.9273 -2.83675,1.82992 z m 277.16324,-4.49659 c -1.65849,-2.11475 -1.61133,-2.16191 0.50342,-0.50341 2.221,1.74182 2.9273,2.83674 1.82992,2.83674 -0.27687,0 -1.32687,-1.05 -2.33334,-2.33333 z m 81.76335,-1 c 0.0272,-2.2 0.326,-2.93859 0.66405,-1.64129 0.33805,1.29729 0.31583,3.09729 -0.0495,4 -0.36524,0.9027 -0.64182,-0.15871 -0.61465,-2.35871 z m -354.92659,0.16325 c 0,-0.27686 1.05,-1.32686 2.33333,-2.33333 2.11475,-1.65849 2.16191,-1.61133 0.50342,0.50341 -1.74183,2.221 -2.83675,2.92731 -2.83675,1.82992 z m -82.33042,-6.82992 c 0.0148,-2.93333 0.28785,-3.97633 0.60677,-2.31778 0.31892,1.65854 0.30682,4.05854 -0.0269,5.33333 -0.33372,1.27479 -0.59466,-0.0822 -0.57986,-3.01555 z m 350.16033,1 c -1.65849,-2.11474 -1.61133,-2.1619 0.50341,-0.50341 1.28334,1.00647 2.33334,2.05647 2.33334,2.33333 0,1.09739 -1.09492,0.39108 -2.83675,-1.82992 z m 75.09668,-2.33333 c 0.0272,-2.2 0.326,-2.93859 0.66405,-1.64129 0.33805,1.29729 0.31583,3.09729 -0.0495,4 -0.36524,0.9027 -0.64182,-0.15871 -0.61465,-2.35871 z m -334.92659,-1.33333 c 1.72233,-1.83334 3.43151,-3.33334 3.79817,-3.33334 0.36667,0 -0.7425,1.5 -2.46484,3.33334 -1.72233,1.83333 -3.4315,3.33333 -3.79817,3.33333 -0.36667,0 0.74251,-1.5 2.46484,-3.33333 z m 348.33623,-6.66667 c 0.0148,-2.93333 0.28785,-3.97633 0.60677,-2.31779 0.31892,1.65855 0.30681,4.05855 -0.0269,5.33334 -0.33372,1.27478 -0.59467,-0.0823 -0.57987,-3.01555 z m -426.62155,-4 c 0.0107,-3.66667 0.26896,-5.00841 0.57543,-2.98167 0.30648,2.02675 0.29828,5.02675 -0.0181,6.66667 -0.31648,1.63992 -0.56723,-0.0183 -0.55723,-3.685 z m 89.61865,-0.66667 c 1.32732,-1.46666 2.71331,-2.66666 3.07998,-2.66666 0.36666,0 -0.41932,1.2 -1.74664,2.66666 -1.32732,1.46667 -2.71331,2.66667 -3.07998,2.66667 -0.36666,0 0.41932,-1.2 1.74664,-2.66667 z m -102.87625,-8.66666 c 0.005,-5.86667 0.23926,-8.10082 0.52092,-4.96476 0.28166,3.13605 0.2777,7.93605 -0.009,10.66666 -0.28651,2.73062 -0.51696,0.16476 -0.51212,-5.7019 z m 332.0829,4.33333 -2.53999,-3 3,2.53999 c 2.81925,2.38696 3.60699,3.46001 2.53999,3.46001 -0.25302,0 -1.60302,-1.35 -3,-3 z m -221.87331,-1.50341 c 0,-0.27687 1.05,-1.32687 2.33333,-2.33334 2.11475,-1.65849 2.16191,-1.61133 0.50341,0.50342 -1.74182,2.221 -2.83674,2.9273 -2.83674,1.82992 z m -95.41183,-2.75636 c 1.4235,-1.14047 3.17349,-2.07356 3.88889,-2.07356 1.69406,0 0.93764,0.61586 -3.14373,2.55961 -3.14302,1.49687 -3.18557,1.46911 -0.74516,-0.48605 z m 311.24174,-0.4069 c -1.6585,-2.11474 -1.61134,-2.1619 0.50341,-0.50341 2.221,1.74183 2.92731,2.83675 1.82992,2.83675 -0.27687,0 -1.32687,-1.05 -2.33333,-2.33334 z m -330.66665,-28 c -1.6585,-2.11474 -1.61134,-2.1619 0.50341,-0.50341 1.28333,1.00647 2.33333,2.05647 2.33333,2.33333 0,1.09739 -1.09492,0.39108 -2.83674,-1.82992 z m 185.2534,-2.57748 c 0.96249,-0.38516 2.11249,-0.3378 2.55556,0.1052 0.44305,0.44306 -0.34445,0.75819 -1.75,0.7003 -1.55327,-0.064 -1.8692,-0.37992 -0.80556,-0.80555 z m 245.58332,-0.42252 c -1.1,-0.71088 -1.4,-1.29249 -0.66666,-1.29249 0.73333,0 2.23333,0.58161 3.33333,1.29249 1.1,0.71088 1.4,1.2925 0.66667,1.2925 -0.73334,0 -2.23334,-0.58162 -3.33334,-1.2925 z m -238.91665,-0.91081 c 0.96249,-0.38516 2.11249,-0.3378 2.55556,0.1052 0.44305,0.44305 -0.34446,0.75819 -1.75,0.70029 -1.55327,-0.064 -1.8692,-0.37992 -0.80556,-0.80554 z m 63.91666,0.0277 c 0.91667,-0.36988 2.41667,-0.36988 3.33333,0 0.91667,0.36988 0.16667,0.67252 -1.66666,0.67252 -1.83334,0 -2.58334,-0.30264 -1.66667,-0.67252 z m -56,-1.33333 c 0.91667,-0.36988 2.41667,-0.36988 3.33334,0 0.91666,0.36988 0.16666,0.67252 -1.66667,0.67252 -1.83333,0 -2.58333,-0.30264 -1.66667,-0.67252 z m 46.66667,0 c 0.91666,-0.36988 2.41666,-0.36988 3.33333,0 0.91667,0.36988 0.16667,0.67252 -1.66667,0.67252 -1.83333,0 -2.58333,-0.30264 -1.66666,-0.67252 z m -28.61799,-1.43707 c 4.24344,-0.2654 10.84344,-0.26293 14.66667,0.005 3.82322,0.26841 0.35132,0.48556 -7.71535,0.48254 -8.06666,-0.003 -11.19476,-0.22261 -6.95132,-0.48801 z m -51.29868,-11.92404 c 0.9625,-0.38516 2.1125,-0.3378 2.55556,0.1052 0.44306,0.44306 -0.34445,0.75819 -1.75,0.7003 -1.55326,-0.064 -1.8692,-0.37992 -0.80556,-0.80555 z m -135.74999,-1.75581 c 1.1,-0.71088 2.6,-1.29249 3.33333,-1.29249 0.73333,0 0.43333,0.58161 -0.66667,1.29249 -1.1,0.71088 -2.6,1.29249 -3.33333,1.29249 -0.73333,0 -0.43333,-0.58161 0.66667,-1.29249 z m 143.66666,0.45029 c 0.91667,-0.36988 2.41667,-0.36988 3.33333,0 0.91667,0.36988 0.16667,0.67252 -1.66666,0.67252 -1.83334,0 -2.58334,-0.30264 -1.66667,-0.67252 z m 97.33333,0 c 0.91667,-0.36988 2.41667,-0.36988 3.33333,0 0.91667,0.36988 0.16667,0.67252 -1.66666,0.67252 -1.83334,0 -2.58334,-0.30264 -1.66667,-0.67252 z m -85.97462,-1.37428 c 1.29729,-0.33805 3.09729,-0.31582 4,0.0495 0.9027,0.36524 -0.15871,0.64183 -2.35871,0.61465 -2.2,-0.0272 -2.93859,-0.326 -1.64129,-0.66405 z m 75.99999,0 c 1.2973,-0.33805 3.0973,-0.31582 4,0.0495 0.90271,0.36524 -0.1587,0.64183 -2.3587,0.61465 -2.2,-0.0272 -2.93859,-0.326 -1.6413,-0.66405 z m -62.00982,-1.35236 c 1.65855,-0.31892 4.05855,-0.30681 5.33333,0.0269 1.27479,0.33372 -0.0823,0.59466 -3.01554,0.57986 -2.93334,-0.0148 -3.97634,-0.28785 -2.31779,-0.60677 z m 45.31778,0.003 c 1.65,-0.31781 4.35,-0.31781 6,0 1.65,0.3178 0.3,0.57783 -3,0.57783 -3.3,0 -4.65,-0.26003 -3,-0.57783 z m -204.99999,-1.72632 c 1.1,-0.71088 2.6,-1.29249 3.33333,-1.29249 0.73334,0 0.43334,0.58161 -0.66666,1.29249 -1.1,0.71088 -2.6,1.29249 -3.33334,1.29249 -0.73333,0 -0.43333,-0.58161 0.66667,-1.29249 z m 182.99999,0.41423 c 1.28334,-0.33536 3.38334,-0.33536 4.66667,0 1.28333,0.33537 0.23333,0.60977 -2.33333,0.60977 -2.56667,0 -3.61667,-0.2744 -2.33334,-0.60977 z m -134.99999,-6.27158 c 0,-0.28821 0.93116,-0.88133 2.06925,-1.31806 1.18656,-0.45532 1.72176,-0.2318 1.25464,0.52401 -0.78301,1.26695 -3.32389,1.87393 -3.32389,0.79405 z m 4.10527,-5.58709 c 0.064,-1.55327 0.37992,-1.8692 0.80554,-0.80556 0.38516,0.96249 0.3378,2.11249 -0.1052,2.55556 -0.44306,0.44305 -0.75818,-0.34445 -0.70029,-1.75 z m 94.9201,-10.81288 c 1.29729,-0.33805 3.09729,-0.31583 4,0.0495 0.90271,0.36524 -0.15871,0.64182 -2.35871,0.61465 -2.2,-0.0272 -2.93858,-0.326 -1.64129,-0.66405 z m 73.33333,0 c 1.29729,-0.33805 3.09729,-0.31583 4,0.0495 0.90271,0.36524 -0.15871,0.64182 -2.35871,0.61465 -2.2,-0.0272 -2.93858,-0.326 -1.64129,-0.66405 z m -45.30325,-1.39935 c 4.98049,-0.25724 12.78049,-0.25532 17.33333,0.004 4.55283,0.25958 0.47788,0.47004 -9.05545,0.46771 -9.53333,-0.003 -13.25839,-0.21471 -8.27788,-0.47195 z m 59.8246,-6.01 c -0.1878,-4.40036 0.1464,-4.98145 2.78661,-4.84533 2.13164,0.10987 2.34728,0.3268 0.74497,0.74935 -1.35628,0.35768 -2.46688,2.28878 -2.78661,4.84533 -0.51072,4.08377 -0.53997,4.05435 -0.74497,-0.74935 z m 55.53661,3.42252 c 0.96249,-0.38516 2.1125,-0.3378 2.55556,0.1052 0.44305,0.44306 -0.34446,0.75819 -1.75,0.7003 -1.55327,-0.064 -1.8692,-0.37992 -0.80556,-0.80555 z m -6.66667,-1.33333 c 0.96249,-0.38516 2.11251,-0.3378 2.55556,0.1052 0.44305,0.44305 -0.34445,0.75819 -1.75,0.70029 -1.55327,-0.064 -1.8692,-0.37992 -0.80556,-0.80554 z m -8,-1.33333 c 0.9625,-0.38516 2.11251,-0.3378 2.55556,0.1052 0.44306,0.44305 -0.34445,0.75818 -1.75,0.70029 -1.55326,-0.064 -1.8692,-0.37992 -0.80556,-0.80555 z m -320.74999,-1.34163 c 1.28334,-0.33536 3.38334,-0.33536 4.66667,0 1.28333,0.33537 0.23333,0.60977 -2.33333,0.60977 -2.56667,0 -3.61667,-0.2744 -2.33334,-0.60977 z m 146.08333,0.008 c 0.96249,-0.38516 2.11249,-0.3378 2.55556,0.1052 0.44305,0.44305 -0.34445,0.75819 -1.75,0.70029 -1.55327,-0.064 -1.8692,-0.37992 -0.80556,-0.80554 z m 166.66666,0 c 0.9625,-0.38516 2.11251,-0.3378 2.55556,0.1052 0.44306,0.44305 -0.34445,0.75819 -1.75,0.70029 -1.55326,-0.064 -1.8692,-0.37992 -0.80556,-0.80554 z m -158.74999,-1.30527 c 0.91666,-0.36988 2.41666,-0.36988 3.33333,0 0.91667,0.36988 0.16667,0.67252 -1.66667,0.67252 -1.83333,0 -2.58333,-0.30264 -1.66666,-0.67252 z m 149.41666,-0.0277 c 0.96249,-0.38516 2.11251,-0.3378 2.55556,0.1052 0.44305,0.44305 -0.34445,0.75819 -1.75,0.70029 -1.55327,-0.064 -1.8692,-0.37992 -0.80556,-0.80554 z m -313.2534,-2.75589 c -1.65849,-2.11475 -1.61133,-2.16191 0.50341,-0.50342 1.28333,1.00647 2.33333,2.05647 2.33333,2.33334 0,1.09738 -1.09491,0.39108 -2.83674,-1.82992 z m 175.19544,1.40934 c 1.2973,-0.33805 3.0973,-0.31582 4,0.0495 0.90271,0.36524 -0.1587,0.64183 -2.3587,0.61465 -2.2,-0.0272 -2.93859,-0.326 -1.6413,-0.66405 z m 127.30796,0.0409 c 0.91667,-0.36988 2.41667,-0.36988 3.33333,0 0.91667,0.36988 0.16667,0.67252 -1.66666,0.67252 -1.83334,0 -2.58334,-0.30264 -1.66667,-0.67252 z m -187.91666,-1.36111 c 0.96249,-0.38516 2.11249,-0.3378 2.55556,0.1052 0.44305,0.44305 -0.34445,0.75819 -1.75,0.70029 -1.55327,-0.064 -1.8692,-0.37992 -0.80556,-0.80554 z m 72,0 c 0.96249,-0.38516 2.11249,-0.3378 2.55556,0.1052 0.44305,0.44305 -0.34446,0.75819 -1.75,0.70029 -1.55327,-0.064 -1.8692,-0.37992 -0.80556,-0.80554 z m 23.91666,-0.0301 c 1.65,-0.31782 4.35,-0.31782 6,0 1.65,0.3178 0.3,0.57782 -3,0.57782 -3.3,0 -4.65,-0.26002 -3,-0.57782 z m 52,0 c 1.65,-0.31782 4.35,-0.31782 6,0 1.65,0.3178 0.3,0.57782 -3,0.57782 -3.3,0 -4.65,-0.26002 -3,-0.57782 z m -166.19947,-3.453 c -1.68656,-2.80842 -1.65815,-2.83683 0.63777,-0.63778 1.32164,1.26588 2.11597,2.58859 1.7652,2.93936 -0.35077,0.35078 -1.43211,-0.68493 -2.40297,-2.30158 z m 108.26569,-3.60604 c 0,-4.03334 0.24996,-5.68334 0.55545,-3.66667 0.30551,2.01667 0.30551,5.31667 0,7.33333 -0.30549,2.01667 -0.55545,0.36667 -0.55545,-3.66666 z m -27.31622,-3.57748 c 0.9625,-0.38516 2.1125,-0.3378 2.55556,0.1052 0.44306,0.44305 -0.34445,0.75818 -1.75,0.70029 -1.55326,-0.064 -1.8692,-0.37992 -0.80556,-0.80555 z m 112.25,-4.42252 c 0,-2.2 0.23191,-4 0.51533,-4 0.28344,0 0.77952,1.8 1.10242,4 0.32289,2.2 0.0909,4 -0.51534,4 -0.60633,0 -1.10241,-1.8 -1.10241,-4 z m -270.30795,-0.92399 c 1.29729,-0.33805 3.09729,-0.31583 4,0.0493 0.90271,0.36524 -0.15871,0.64183 -2.35871,0.61466 -2.2,-0.0272 -2.93858,-0.326 -1.64129,-0.66406 z m 191.30795,0.041 c 0.91667,-0.36988 2.41667,-0.36988 3.33334,0 0.91666,0.36988 0.16666,0.67252 -1.66667,0.67252 -1.83333,0 -2.58333,-0.30264 -1.66667,-0.67252 z m 54.66667,0 c 0.91666,-0.36988 2.41666,-0.36988 3.33333,0 0.91667,0.36988 0.16667,0.67252 -1.66667,0.67252 -1.83333,0 -2.58333,-0.30264 -1.66666,-0.67252 z m -191.66666,-0.95371 c 0,-0.27687 1.05,-1.32687 2.33333,-2.33333 2.11475,-1.6585 2.16191,-1.61134 0.50341,0.50341 -1.74182,2.221 -2.83674,2.92731 -2.83674,1.82992 z m 122.41666,-7.07407 c 0.96249,-0.38516 2.11249,-0.3378 2.55556,0.1052 0.44305,0.44307 -0.34445,0.75819 -1.75,0.7003 -1.55327,-0.064 -1.8692,-0.37992 -0.80556,-0.80555 z m 85.25,0.0277 c 0.91666,-0.36988 2.41666,-0.36988 3.33333,0 0.91667,0.36988 0.16667,0.67252 -1.66667,0.67252 -1.83333,0 -2.58333,-0.30264 -1.66666,-0.67252 z m -75.30796,-1.37428 c 1.29729,-0.33806 3.09729,-0.31583 4,0.0493 0.90271,0.36524 -0.15871,0.64183 -2.35871,0.61465 -2.2,-0.0272 -2.93858,-0.326 -1.64129,-0.66405 z m 64,0 c 1.29729,-0.33806 3.09729,-0.31583 4,0.0493 0.9027,0.36524 -0.15871,0.64183 -2.35871,0.61465 -2.2,-0.0272 -2.93859,-0.326 -1.64129,-0.66405 z m -40.02537,-1.40039 c 5.68333,-0.24993 14.98333,-0.24993 20.66666,0 5.68333,0.24993 1.03333,0.45443 -10.33333,0.45443 -11.36667,0 -16.01667,-0.2045 -10.33333,-0.45443 z m 236.74999,-3.91973 c 0.96249,-0.38516 2.1125,-0.3378 2.55556,0.1052 0.44305,0.44306 -0.34446,0.75818 -1.75,0.70029 -1.55327,-0.064 -1.8692,-0.37992 -0.80556,-0.80555 z m -211.41666,-6.72715 c 2.75,-0.28765 7.25,-0.28765 10,0 2.75,0.28767 0.5,0.52301 -5,0.52301 -5.5,0 -7.75,-0.23534 -5,-0.52301 z m -54.89473,-2.47315 c 0.064,-1.55326 0.37992,-1.8692 0.80554,-0.80556 0.38516,0.9625 0.3378,2.1125 -0.1052,2.55556 -0.44306,0.44306 -0.75818,-0.34445 -0.70029,-1.75 z m -193.22807,-1.88889 c 0,-1.83333 0.30263,-2.58333 0.67251,-1.66667 0.36989,0.91667 0.36989,2.41667 0,3.33334 -0.36988,0.91666 -0.67251,0.16666 -0.67251,-1.66667 z m 466.56139,0.55556 c 0.064,-1.55327 0.37992,-1.8692 0.80555,-0.80556 0.38516,0.96249 0.3378,2.11249 -0.1052,2.55556 -0.44306,0.44305 -0.75819,-0.34445 -0.7003,-1.75 z m -489.10234,-3.88889 c 0.0148,-2.93334 0.28785,-3.97634 0.60677,-2.31779 0.31893,1.65855 0.30682,4.05855 -0.0269,5.33333 -0.33372,1.27479 -0.59466,-0.0822 -0.57986,-3.01554 z m 301.39663,-10 c 0,-4.03334 0.24996,-5.68334 0.55545,-3.66667 0.30551,2.01667 0.30551,5.31667 0,7.33333 -0.30549,2.01667 -0.55545,0.36667 -0.55545,-3.66666 z m -239.06621,0 c -0.78493,-1.46667 -2.75604,-2.73627 -4.38024,-2.82134 -2.51109,-0.13152 -2.57772,-0.25096 -0.44515,-0.79806 1.57359,-0.40369 3.70487,0.64743 5.72063,2.82134 1.76697,1.9056 2.60951,3.46472 1.87229,3.46472 -0.7372,0 -1.9826,-1.2 -2.76753,-2.66666 z m -79.89473,-0.77778 c 0.064,-1.55326 0.37992,-1.8692 0.80555,-0.80556 0.38516,0.9625 0.33779,2.1125 -0.10526,2.55556 -0.44306,0.44305 -0.75819,-0.34445 -0.7003,-1.75 z m 256.89473,1.17013 c 1.65,-0.3178 4.35,-0.3178 6,0 1.65,0.31781 0.3,0.57783 -3,0.57783 -3.3,0 -4.65,-0.26002 -3,-0.57783 z m 214.64443,-1.89114 c 0.90445,-0.91122 1.98032,-1.32089 2.39084,-0.91038 0.41052,0.41052 -0.32948,1.15607 -1.64444,1.65678 -1.90027,0.72358 -2.05342,0.57042 -0.7464,-0.7464 z m -402.56109,-0.74537 c 0.96249,-0.38516 2.11249,-0.33779 2.55555,0.10527 0.44306,0.44306 -0.34445,0.75819 -1.74999,0.70029 -1.55327,-0.064 -1.8692,-0.37992 -0.80556,-0.80555 z m 229.79384,-1.75584 c 0,-1.83334 0.30264,-2.58334 0.67252,-1.66667 0.36988,0.91667 0.36988,2.41667 0,3.33333 -0.36988,0.91667 -0.67252,0.16667 -0.67252,-1.66666 z m -39.87718,-6.30463 c 2.75,-0.28766 7.25,-0.28766 9.99999,0 2.75,0.28766 0.5,0.52302 -4.99999,0.52302 -5.5,0 -7.75,-0.23536 -5,-0.52302 z m 51.00943,-5.6801 c -0.46712,-0.75581 0.0681,-0.97934 1.25464,-0.52402 2.3099,0.88639 2.73252,1.84208 0.81462,1.84208 -0.69006,0 -1.62123,-0.59313 -2.06926,-1.31806 z m -216.84618,-3.68194 c -1.65849,-2.11474 -1.61133,-2.1619 0.50342,-0.50341 2.221,1.74183 2.9273,2.83674 1.82992,2.83674 -0.27687,0 -1.32687,-1.05 -2.33334,-2.33333 z m 218.83674,1.82993 c 0,-0.27688 1.05,-1.32688 2.33334,-2.33334 2.11474,-1.65849 2.1619,-1.61133 0.50341,0.50341 -1.74183,2.221 -2.83675,2.92731 -2.83675,1.82993 z m -229.66666,-5.71297 c 0.91667,-0.36988 2.41667,-0.36988 3.33334,0 0.91666,0.36988 0.16666,0.67251 -1.66667,0.67251 -1.83333,0 -2.58333,-0.30263 -1.66667,-0.67251 z m 192.66666,-0.097 c 3.48334,-0.27467 9.18334,-0.27467 12.66667,0 3.48333,0.27466 0.63333,0.49939 -6.33333,0.49939 -6.96667,0 -9.81667,-0.22473 -6.33334,-0.49939 z m 42.4386,-9.13106 c 0.064,-1.55326 0.37992,-1.8692 0.80555,-0.80556 0.38516,0.9625 0.3378,2.1125 -0.1052,2.55556 -0.44305,0.44305 -0.75819,-0.34445 -0.70029,-1.75 z m -54.43859,-1.54429 c 4.95,-0.25654 13.04999,-0.25654 17.99999,0 4.95,0.25654 0.9,0.46644 -9,0.46644 -9.89999,0 -13.94999,-0.2099 -8.99999,-0.46644 z m -27.95199,-10.3446 c 0.0107,-3.66667 0.26896,-5.00842 0.57543,-2.98167 0.30648,2.02675 0.29828,5.02675 -0.0181,6.66667 -0.31654,1.63992 -0.56729,-0.0183 -0.55729,-3.685 z m -97.96468,-0.24415 c 0.9625,-0.38516 2.1125,-0.33779 2.55556,0.10526 0.44306,0.44306 -0.34445,0.75819 -1.75,0.7003 -1.55326,-0.064 -1.8692,-0.37992 -0.80556,-0.80556 z m 16,-2.66667 c 0.9625,-0.38516 2.1125,-0.33779 2.55556,0.10527 0.44306,0.44305 -0.34445,0.75819 -1.75,0.70029 -1.55326,-0.064 -1.8692,-0.37992 -0.80556,-0.80555 z m 231.99999,0 c 0.9625,-0.38516 2.11251,-0.33779 2.55556,0.10527 0.44306,0.44305 -0.34445,0.75819 -1.75,0.70029 -1.55326,-0.064 -1.8692,-0.37992 -0.80556,-0.80555 z m -224.08332,-1.30555 c 0.91667,-0.36989 2.41667,-0.36989 3.33333,0 0.91667,0.36988 0.16667,0.67251 -1.66666,0.67251 -1.83334,0 -2.58334,-0.30263 -1.66667,-0.67251 z m 214.66666,0 c 0.91666,-0.36989 2.41666,-0.36989 3.33333,0 0.91667,0.36988 0.16667,0.67251 -1.66667,0.67251 -1.83333,0 -2.58333,-0.30263 -1.66666,-0.67251 z m -205.33333,-1.33334 c 0.91667,-0.36988 2.41667,-0.36988 3.33333,0 0.91667,0.36989 0.16667,0.67252 -1.66666,0.67252 -1.83334,0 -2.58334,-0.30263 -1.66667,-0.67252 z m 106.71892,-0.1055 c 4.61206,-0.26111 11.81206,-0.25896 16,0.005 4.18792,0.26374 0.41441,0.47737 -8.38559,0.47474 -8.8,-0.003 -12.22649,-0.21843 -7.61441,-0.47954 z m 89.28108,0.1055 c 0.91666,-0.36988 2.41666,-0.36988 3.33333,0 0.91666,0.36989 0.16666,0.67252 -1.66667,0.67252 -1.83333,0 -2.58333,-0.30263 -1.66666,-0.67252 z m -184.64129,-1.37428 c 1.29729,-0.33806 3.09729,-0.31582 4,0.0494 0.9027,0.36523 -0.15871,0.64183 -2.35871,0.61465 -2.2,-0.0272 -2.93859,-0.32599 -1.64129,-0.66405 z m 173.33333,0 c 1.29729,-0.33806 3.09729,-0.31582 4,0.0494 0.9027,0.36523 -0.15871,0.64183 -2.35871,0.61465 -2.2,-0.0272 -2.93859,-0.32599 -1.64129,-0.66405 z m -161.33333,-1.33333 c 1.29729,-0.33806 3.09729,-0.31583 4,0.0494 0.9027,0.36523 -0.15871,0.64182 -2.35871,0.61465 -2.2,-0.0272 -2.93859,-0.326 -1.64129,-0.66406 z m 147.97462,0.005 c 1.28333,-0.33537 3.38333,-0.33537 4.66667,0 1.28333,0.33537 0.23333,0.60977 -2.33334,0.60977 -2.56666,0 -3.61666,-0.2744 -2.33333,-0.60977 z M -716.14173,201.135 c 1.65855,-0.31893 4.05855,-0.30682 5.33333,0.0269 1.27479,0.33372 -0.0823,0.59466 -3.01554,0.57986 -2.93334,-0.0148 -3.97634,-0.28785 -2.31779,-0.60677 z m 118.66666,0 c 1.65855,-0.31893 4.05855,-0.30682 5.33334,0.0269 1.27478,0.33372 -0.0823,0.59466 -3.01555,0.57986 -2.93333,-0.0148 -3.97633,-0.28785 -2.31779,-0.60677 z m -98.68221,-1.35485 c 2.38334,-0.29577 6.28334,-0.29577 8.66667,0 2.38333,0.29577 0.43333,0.53776 -4.33333,0.53776 -4.76667,0 -6.71667,-0.24199 -4.33334,-0.53776 z m 74.66667,0 c 2.38333,-0.29577 6.28333,-0.29577 8.66666,0 2.38334,0.29577 0.43334,0.53776 -4.33333,0.53776 -4.76667,0 -6.71667,-0.24199 -4.33333,-0.53776 z m -37.95977,-1.3505 c 3.50546,-0.27557 8.90546,-0.27224 11.99999,0.007 3.09455,0.27964 0.22644,0.5051 -6.37356,0.50104 -6.59999,-0.004 -9.13189,-0.23285 -5.62643,-0.50842 z"
       id="path4572"
       inkscape:connector-curvature="0" />
    <path
       style="fill:#006194;fill-opacity:1;stroke-width:1.33333325"
       d="m -660.21289,794.78266 c -56.20329,-36.91976 -101.02402,-84.17228 -137.89036,-145.37169 -40.17636,-66.69416 -68.77911,-162.7706 -71.84693,-241.33334 l -0.72892,-18.66666 -9.84781,-25.33334 c -5.4163,-13.93333 -17.07388,-43.79714 -25.90575,-66.36401 -8.83187,-22.56688 -16.05794,-41.86063 -16.05794,-42.875 0,-3.68157 40.56342,-19.07395 81.20654,-30.81501 98.61061,-28.48681 224.80754,-32.19241 336.16028,-9.87089 34.74566,6.96504 78.62649,19.91118 109.29983,32.24667 9.16666,3.68644 16.89334,6.89881 17.1704,7.13861 0.47972,0.4152 -17.26051,46.22687 -40.22404,103.87297 l -10.62276,26.66666 -1.81512,24 c -5.68074,75.11223 -22.56111,140.8301 -52.30428,203.6284 -34.95004,73.79187 -88.6002,136.6269 -154.2042,180.60382 -13.64146,9.1444 -12.43549,9.0112 -22.38894,2.47281 z m 22.77342,-16.54317 c 44.89692,-30.29639 82.80836,-68.53627 113.18135,-114.16186 45.91016,-68.96517 75.85175,-161.83149 79.98871,-248.09158 l 0.84567,-17.63298 -4.05781,-2.09837 c -9.09972,-4.70565 -46.61165,-19.72723 -63.47708,-25.41925 -49.04617,-16.55296 -113.1731,-27.21292 -151.53198,-25.18951 -59.93148,3.16136 -121.45697,19.17092 -188.47604,49.04341 l -7.80935,3.48087 0.89682,14.95371 c 5.09689,84.98529 29.42649,166.38417 70.22612,234.9537 29.70793,49.92835 73.13473,96.02248 121.15804,128.59974 7.62149,5.17014 14.66339,9.40026 15.64865,9.40026 0.98526,0 7.01837,-3.52716 13.4069,-7.83814 z m -26.96371,-57.17167 c -7.22271,-12.27793 -18.96166,-32.22352 -26.08656,-44.32352 -15.2567,-25.90996 -34.7144,-58.9998 -53.51043,-91 -24.3556,-41.46533 -39.97529,-67.98348 -53.33642,-90.55127 -7.23471,-12.21985 -13.15402,-22.90274 -13.15402,-23.73974 0,-2.94614 7.67287,-19.48127 13.32196,-28.70899 14.78503,-24.1512 31.17975,-40.56131 55.19503,-55.24685 40.10669,-24.52558 94.87718,-30.88411 144.18943,-16.73955 25.51304,7.31807 56.21109,26.15964 73.3084,44.99455 13.02889,14.35304 26.47971,36.05434 31.94081,51.5328 1.69296,4.79834 1.58562,5.09934 -6.95417,19.49964 -4.77052,8.04434 -15.71057,26.62608 -24.31123,41.29274 -61.95714,105.6554 -125.51702,213.36012 -126.47673,214.31983 -0.54664,0.54664 -6.90337,-9.05169 -14.12607,-21.32964 z m 22.97827,-30.99019 c 19.58464,-91.23921 28.82372,-133.87186 37.08263,-171.11328 l 8.82185,-39.77994 -4.48509,-4.64662 c -10.17105,-10.53736 -27.91668,-18.32364 -45.20177,-19.83328 -18.70428,-1.63358 -41.32804,5.91128 -54.8912,18.30586 l -6.27453,5.73393 3.93954,17.33333 c 2.16675,9.53334 10.23064,46.43334 17.91975,82 7.68911,35.56667 18.18985,84.05835 23.33499,107.75931 5.14514,23.70095 9.35479,43.47095 9.35479,43.93333 0,0.46238 0.50452,0.2707 1.12115,-0.42597 0.61663,-0.69667 4.79168,-18.36667 9.27789,-39.26667 z m -16.43222,-30.51557 c 0.76727,-3.49333 0.37689,-4.98965 -1.94707,-7.46341 l -2.90673,-3.09408 4.12476,-0.90595 c 2.54769,-0.55956 4.83706,-2.26541 5.98774,-4.46156 l 1.86298,-3.55561 1.60768,3.52848 c 1.0465,2.29684 3.02836,3.81261 5.67777,4.34249 l 4.07009,0.81403 -2.78188,2.98892 c -1.96108,2.10705 -2.57082,4.07077 -2.06657,6.6556 0.80297,4.11614 0.5204,4.26985 -4.03452,2.19449 -2.59923,-1.18429 -3.94709,-1.00303 -6.89249,0.92687 l -3.66143,2.39905 z m 0.24473,-169.54213 c 0.62484,-3.12422 0.1036,-4.81127 -2.26576,-7.33334 l -3.07729,-3.27562 h 4.2286 c 3.51626,0 4.52878,-0.72996 6.01069,-4.33334 l 1.78209,-4.33333 2.25596,4.33333 c 1.8218,3.49936 3.06722,4.33334 6.47119,4.33334 h 4.21521 l -3.4796,3.66666 c -2.65917,2.80214 -3.30436,4.56119 -2.73637,7.46052 l 0.74324,3.79387 -4.00305,-2.07005 c -3.4802,-1.79968 -4.3309,-1.82184 -6.51308,-0.1696 -3.75744,2.84492 -4.52743,2.40554 -3.63183,-2.07244 z m 18.12299,228.39104 c 3.27372,-5.68334 12.70005,-21.73334 20.94741,-35.66667 8.24736,-13.93333 19.94095,-33.73333 25.98575,-44 6.04478,-10.26667 19.85584,-33.66667 30.69121,-52 77.41149,-130.97935 69.47833,-116.79055 66.55472,-119.03609 -1.3825,-1.06187 -6.78627,-3.99302 -12.00839,-6.51368 -13.27843,-6.40935 -29.08811,-8.37756 -43.49688,-5.41507 -13.44777,2.76489 -25.83472,8.96529 -34.8924,17.46569 l -7.2804,6.83248 -10.66908,50 c -14.54593,68.16872 -38.2139,177.4067 -40.73289,188 -3.3292,14.00064 -2.98519,14.02404 4.90095,0.33334 z m 34.00476,-128.99459 c 0.45446,-2.37736 -0.26482,-4.07847 -2.51823,-5.95564 l -3.1544,-2.62772 3.65537,-0.0444 c 2.17612,-0.0264 4.3293,-1.12349 5.32072,-2.71103 0.91595,-1.46666 2.0806,-2.66666 2.58812,-2.66666 0.50752,0 1.30362,1.2 1.76912,2.66666 0.55911,1.76158 2.01738,2.66667 4.29651,2.66667 3.25797,0 3.32723,0.1358 1.24348,2.43832 -1.21367,1.34108 -2.20665,4.06219 -2.20665,6.04691 0,3.19542 -0.30532,3.44518 -2.66667,2.18144 -1.85132,-0.9908 -3.45521,-1.00515 -5.24568,-0.0469 -3.60331,1.92843 -3.79901,1.80475 -3.08169,-1.94768 z m 25.20178,-46.04416 c 0.62275,-3.11375 0.11734,-4.81963 -2.1397,-7.22216 l -2.95503,-3.14549 4.19556,-0.9215 c 2.58109,-0.5669 4.75813,-2.1562 5.65752,-4.13013 1.86383,-4.09068 3.19535,-4.06983 4.23344,0.0663 0.61157,2.4367 2.01183,3.49814 5.47075,4.14705 l 4.64878,0.87211 -3.10644,2.44353 c -2.37696,1.86972 -2.96596,3.40072 -2.5082,6.51961 0.6491,4.42255 0.12894,4.79435 -3.78004,2.7023 -1.88802,-1.01044 -3.6203,-0.8291 -6.54946,0.68562 l -3.98251,2.05944 z m -78.8857,166.53877 c -3.44743,-15.13029 -18.89452,-86.46378 -39.2312,-181.16669 l -10.73709,-50 -6.34355,-5.68908 c -8.84391,-7.93148 -22.94377,-14.65689 -36.20605,-17.26971 -9.29221,-1.83066 -12.88045,-1.94821 -21.43025,-0.70208 -11.45512,1.66962 -25.38591,6.76386 -31.20314,11.41044 l -3.82924,3.05867 11.67175,19.92921 c 19.86917,33.92614 56.40786,96.18791 69.98992,119.26255 7.12224,12.1 25.75954,43.82685 41.41624,70.50411 15.65669,26.67725 28.66733,47.90226 28.91253,47.16669 0.24519,-0.73559 -1.10927,-8.16243 -3.00992,-16.50411 z m -66.54404,-155.39001 c 0.56809,-2.84048 0.0551,-4.48273 -1.97376,-6.31885 -3.28453,-2.97246 -2.52325,-4.79116 2.00548,-4.79116 2.47111,0 3.79792,-1.10704 5.19361,-4.33334 l 1.8746,-4.33333 1.68668,4.33333 c 1.34116,3.44564 2.44622,4.33334 5.39438,4.33334 4.30665,0 4.69464,1.36017 1.27164,4.45796 -1.6687,1.51013 -2.25103,3.46524 -1.84867,6.20665 0.57807,3.93861 -1.31301,5.477 -3.12623,2.54316 -0.89061,-1.44104 -4.38896,-1.14232 -8.9172,0.76143 -1.98657,0.83518 -2.21552,0.41572 -1.56053,-2.85919 z M -861.45732,368.24239 c 16.79611,-8.4328 37.90786,-17.08144 57.31875,-23.48118 11.47484,-3.78324 19.88308,-7.29312 20.6182,-8.60672 0.78744,-1.40708 0.71294,-3.73404 -0.20378,-6.36374 -0.79483,-2.28004 -1.29244,-4.28954 -1.1058,-4.46556 0.18664,-0.17601 8.73934,-2.13793 19.00601,-4.35982 17.7833,-3.84864 38.16136,-7.11256 56.33333,-9.02283 l 8.33333,-0.87601 v 4.7602 c 0,2.6181 0.70478,5.19577 1.56616,5.72813 0.8614,0.53237 23.12724,0.94667 49.47964,0.92065 52.05971,-0.0513 50.22565,0.22482 50.26712,-7.57016 l 0.0204,-3.83894 9.66667,0.93313 c 12.96485,1.25151 43.98263,6.52591 59.9455,10.1934 l 12.94552,2.97424 -0.75481,5.50693 c -0.5207,3.79891 -0.19364,5.95246 1.05449,6.9434 0.99511,0.79007 8.70929,3.69058 17.14263,6.44558 17.34981,5.66782 37.37656,13.66052 55.99999,22.34965 12.20136,5.69279 15.52763,6.28268 17.65858,3.13164 3.19565,-4.72543 10.45716,-26.33496 9.67621,-28.79549 -1.11584,-3.51572 -35.38776,-20.47646 -54.66812,-27.05458 -30.18686,-10.29921 -36.60276,-10.87649 -39.16585,-3.524 -1.05379,3.0229 -2.05803,3.92452 -3.79989,3.41162 -14.72259,-4.33514 -43.08895,-9.72914 -66.83053,-12.70814 l -18.12399,-2.27413 -0.89673,-4.38455 c -0.4932,-2.41149 -1.54688,-5.03469 -2.34151,-5.82932 -5.90232,-5.90232 -86.77028,-6.12254 -95.75508,-0.26077 -1.79748,1.17268 -3.07438,3.57076 -3.33333,6.26007 l -0.41973,4.35921 -9.33334,0.97712 c -21.32625,2.23268 -65.02042,10.05499 -76.85435,13.75876 -1.53948,0.48183 -2.60718,-0.51861 -3.60344,-3.37651 -0.77866,-2.23366 -2.46388,-4.46341 -3.74495,-4.955 -2.9814,-1.14408 -22.82183,3.87015 -39.13059,9.88938 -18.49709,6.82689 -47.70876,21.3556 -50.01507,24.87548 -1.81085,2.76369 -1.57547,4.05856 2.83368,15.58908 4.03455,10.55088 8.18513,17.24169 10.69573,17.24169 0.30373,0 4.58725,-2.02585 9.51895,-4.50191 z m -4.69626,-11.83142 c -1.54765,-1.94992 -4.81887,-11.65022 -4.13658,-12.26638 1.35761,-1.226 20.77075,-10.43498 31.79955,-15.08468 17.91255,-7.55185 30.6,-11.60688 31.86432,-10.18412 0.5874,0.66102 2.06055,3.76979 3.27366,6.90838 2.0793,5.37961 2.0717,5.7531 -0.1328,6.51933 -11.51191,4.00125 -41.7177,16.45157 -49.97556,20.59908 -11.78287,5.91795 -10.96053,5.69064 -12.69257,3.50839 z m 408.34935,-7.68363 c -10.98916,-4.99024 -24.78916,-10.72229 -30.66667,-12.73789 -5.8775,-2.0156 -10.89752,-3.83146 -11.15556,-4.03523 -1.20818,-0.95408 4.23356,-13.87659 5.84351,-13.87659 4.87299,0 51.87392,19.3117 60.26501,24.76162 l 2.97268,1.93073 -2.45911,6.26041 c -1.35252,3.44323 -2.99022,6.3751 -3.63934,6.51527 -0.64914,0.14017 -10.17136,-3.82808 -21.16052,-8.81832 z m -227.3531,-45.46399 5e-5,-7.48094 7,-0.8408 c 9.0924,-1.09212 47.92235,-0.92831 55.66667,0.23485 l 6,0.90117 v 7.0692 7.06922 l -34.33339,0.26412 -34.33338,0.26413 z m 275.94862,6.48095 c 0.0283,-1.28333 -0.99858,-2.42472 -2.28191,-2.53641 -1.28333,-0.11174 -3.00201,-0.27075 -3.81928,-0.35344 -0.81728,-0.0827 -2.48719,-0.98128 -3.71091,-1.99688 -1.22373,-1.0156 -5.1129,-2.12404 -8.64261,-2.4632 l -6.41765,-0.61666 -2.20478,5.51027 c -1.21262,3.03065 -2.20477,6.3546 -2.20477,7.38653 0,2.74588 6.24753,7.20366 11.4686,8.18314 2.49227,0.46754 4.5314,1.04426 4.5314,1.28157 0,0.23732 -0.56995,1.93056 -1.26655,3.76276 -1.11612,2.93561 -0.83898,3.47645 2.33334,4.55352 3.53333,1.19963 3.67904,1.02256 7.88178,-9.57783 2.35504,-5.94002 4.30504,-11.85004 4.33334,-13.13337 z m -18.30396,6.69616 c -2.24766,-1.0834 -2.80314,-2.17071 -2.16771,-4.24309 1.17375,-3.828 1.15524,-3.81896 5.7458,-2.8107 4.82415,1.05956 5.91516,2.43918 4.77351,6.03623 -0.92574,2.91671 -3.70827,3.25573 -8.3516,1.01756 z m -423.75678,-8.26748 c 21.55298,-7.10892 34.87876,-13.3242 37.65634,-17.56332 2.30874,-3.5236 1.99864,-14.26071 -0.59735,-20.68231 l -1.40828,-3.4836 -9.97148,3.4417 c -9.83893,3.39593 -9.96263,3.49624 -9.30553,7.54545 0.88478,5.45229 -0.55051,6.46461 -17.03802,12.01705 -18.02464,6.0701 -21.57009,6.06879 -24.45417,-0.009 -6.03183,-12.71113 -7.76636,-22.98743 -4.35756,-25.81648 2.30239,-1.91044 29.17147,-10.87784 32.59447,-10.87784 1.46768,0 3.49168,1.21845 4.4978,2.70766 l 1.82929,2.70765 9.33333,-3.19887 c 8.69867,-2.98136 9.31459,-3.44977 9.05758,-6.88841 -0.43122,-5.76924 -6.2986,-13.53741 -11.52871,-15.2635 -5.68047,-1.87472 -16.14823,0.31907 -35.2139,7.37999 -28.62499,10.6012 -36.31496,15.92037 -36.31496,25.11919 0,4.57924 8.76572,31.67104 12.89806,39.86342 6.07659,12.04688 13.33794,12.56186 42.32309,3.00155 z m 385.5181,-14.42868 c 1.25781,-3.85 2.45661,-7.20059 2.66401,-7.44573 0.2074,-0.24516 9.67952,2.60484 21.04917,6.33333 11.36964,3.72848 22.84886,6.77907 25.50936,6.77907 9.84296,0 15.41251,-5.9423 19.90955,-21.242 4.20115,-14.29302 1.95565,-21.4628 -8.33073,-26.59977 -9.63242,-4.81039 -60.32877,-21.90261 -61.39973,-20.70085 -2.02535,2.27266 -21.8461,61.94852 -20.89238,62.90224 1.09462,1.09463 15.30932,6.58856 17.64432,6.81948 0.85774,0.0848 2.58863,-2.99577 3.84643,-6.84577 z m 25.26073,-19.10259 c -7.33333,-2.51182 -14.0568,-4.83729 -14.94104,-5.1677 -1.21517,-0.45408 -1.09052,-2.1628 0.51056,-6.99858 1.16504,-3.51878 2.58545,-6.91474 3.15647,-7.54656 1.01696,-1.12526 17.71924,3.8614 28.94068,8.64058 6.08566,2.59186 7.05504,5.34954 4.36633,12.42138 -1.74327,4.58512 -5.35317,4.36408 -22.033,-1.34912 z m -170.26979,-3.75789 c 5.07168,-2.62267 7.47634,-9.3852 6.5958,-18.54911 -0.51208,-5.32943 -1.47738,-7.50457 -4.54792,-10.2481 -3.74648,-3.34748 -3.80059,-3.55796 -1.39342,-5.41978 5.51298,-4.26396 5.39259,-21.40454 -0.18953,-26.98666 -3.92707,-3.92706 -12.1024,-4.76831 -47.19513,-4.85639 l -31.66667,-0.0795 -0.0183,31 c -0.0107,17.05 -0.37655,32.33681 -0.81452,33.97069 l -0.79631,2.9707 25.81452,0.48049 c 37.21546,0.69269 49.45469,0.17741 54.21137,-2.28236 z m -52.7302,-15.11579 c -5.47897,-0.49349 -5.66667,-0.66351 -5.66667,-5.13342 v -4.62303 l 21.66667,0.36636 21.66666,0.36636 0.44011,3.85532 c 0.24996,2.18978 -0.32605,4.34102 -1.33333,4.97959 -1.72515,1.09364 -25.37899,1.2151 -36.77344,0.18882 z m -5.66667,-29.02373 v -4.66667 h 20.57681 c 18.88607,0 20.64147,0.20368 21.36358,2.47883 0.4327,1.36336 0.40894,3.46336 -0.0528,4.66667 -0.728,1.89711 -3.56684,2.18784 -21.36358,2.18784 h -20.52401 z"
       id="path4570"
       inkscape:connector-curvature="0" />
  </g>
</svg>
